<?xml version="1.0" encoding="utf-8"?>
<!-- Generator: Adobe Illustrator 24.1.0, SVG Export Plug-In . SVG Version: 6.00 Build 0)  -->
<svg version="1.1" id="Layer_1" xmlns="http://www.w3.org/2000/svg" xmlns:xlink="http://www.w3.org/1999/xlink" x="0px" y="0px"
	 viewBox="0 0 1310 964" style="enable-background:new 0 0 1310 964;" xml:space="preserve">
<style type="text/css">
	.st0{fill:#E6E6FA;stroke:#E6E6FA;}
	.st1{fill:none;stroke:#000000;}
	.st2{font-family:'Helvetica-Bold';}
	.st3{font-size:12px;}
	.st4{fill:#FFFFFF;stroke:#FFFFFF;}
	.st5{font-family:'Helvetica';}
	.st6{stroke:#000000;}
</style>
<g id="graph1" transform="scale(1 1) rotate(0) translate(4 960)">
	<g id="node1">
		<polygon class="st0" points="208,-378 208,-401 344,-401 344,-378 		"/>
		<polygon class="st1" points="208,-378 208,-401 344,-401 344,-378 		"/>
		<text transform="matrix(1 0 0 1 247 -386.7)" class="st2 st3">Customers</text>
		<polygon class="st4" points="208,-360 208,-378 298,-378 298,-360 		"/>
		<polygon class="st1" points="208,-360 208,-378 298,-378 298,-360 		"/>
		<text transform="matrix(1 0 0 1 211 -366.2)" class="st5 st3">CustomerID</text>
		<polygon class="st4" points="298,-360 298,-378 344,-378 344,-360 		"/>
		<polygon class="st1" points="298,-360 298,-378 344,-378 344,-360 		"/>
		<text transform="matrix(1 0 0 1 301 -366.2)" class="st5 st3">varchar</text>
		<polygon class="st4" points="208,-342 208,-360 298,-360 298,-342 		"/>
		<polygon class="st1" points="208,-342 208,-360 298,-360 298,-342 		"/>
		<text transform="matrix(1 0 0 1 211 -348.2)" class="st5 st3">CompanyName</text>
		<polygon class="st4" points="298,-342 298,-360 344,-360 344,-342 		"/>
		<polygon class="st1" points="298,-342 298,-360 344,-360 344,-342 		"/>
		<text transform="matrix(1 0 0 1 301 -348.2)" class="st5 st3">varchar</text>
		<polygon class="st4" points="208,-324 208,-342 298,-342 298,-324 		"/>
		<polygon class="st1" points="208,-324 208,-342 298,-342 298,-324 		"/>
		<text transform="matrix(1 0 0 1 211 -330.2)" class="st5 st3">ContactName</text>
		<polygon class="st4" points="298,-324 298,-342 344,-342 344,-324 		"/>
		<polygon class="st1" points="298,-324 298,-342 344,-342 344,-324 		"/>
		<text transform="matrix(1 0 0 1 301 -330.2)" class="st5 st3">varchar</text>
		<polygon class="st4" points="208,-306 208,-324 298,-324 298,-306 		"/>
		<polygon class="st1" points="208,-306 208,-324 298,-324 298,-306 		"/>
		<text transform="matrix(1 0 0 1 211 -312.2)" class="st5 st3">ContactTitle</text>
		<polygon class="st4" points="298,-306 298,-324 344,-324 344,-306 		"/>
		<polygon class="st1" points="298,-306 298,-324 344,-324 344,-306 		"/>
		<text transform="matrix(1 0 0 1 301 -312.2)" class="st5 st3">varchar</text>
		<polygon class="st4" points="208,-288 208,-306 298,-306 298,-288 		"/>
		<polygon class="st1" points="208,-288 208,-306 298,-306 298,-288 		"/>
		<text transform="matrix(1 0 0 1 211 -294.2)" class="st5 st3">Address</text>
		<polygon class="st4" points="298,-288 298,-306 344,-306 344,-288 		"/>
		<polygon class="st1" points="298,-288 298,-306 344,-306 344,-288 		"/>
		<text transform="matrix(1 0 0 1 301 -294.2)" class="st5 st3">varchar</text>
		<polygon class="st4" points="208,-270 208,-288 298,-288 298,-270 		"/>
		<polygon class="st1" points="208,-270 208,-288 298,-288 298,-270 		"/>
		<text transform="matrix(1 0 0 1 211 -276.2)" class="st5 st3">City</text>
		<polygon class="st4" points="298,-270 298,-288 344,-288 344,-270 		"/>
		<polygon class="st1" points="298,-270 298,-288 344,-288 344,-270 		"/>
		<text transform="matrix(1 0 0 1 301 -276.2)" class="st5 st3">varchar</text>
		<polygon class="st4" points="208,-252 208,-270 298,-270 298,-252 		"/>
		<polygon class="st1" points="208,-252 208,-270 298,-270 298,-252 		"/>
		<text transform="matrix(1 0 0 1 211 -258.2)" class="st5 st3">Region</text>
		<polygon class="st4" points="298,-252 298,-270 344,-270 344,-252 		"/>
		<polygon class="st1" points="298,-252 298,-270 344,-270 344,-252 		"/>
		<text transform="matrix(1 0 0 1 301 -258.2)" class="st5 st3">varchar</text>
		<polygon class="st4" points="208,-234 208,-252 298,-252 298,-234 		"/>
		<polygon class="st1" points="208,-234 208,-252 298,-252 298,-234 		"/>
		<text transform="matrix(1 0 0 1 211 -240.2)" class="st5 st3">PostalCode</text>
		<polygon class="st4" points="298,-234 298,-252 344,-252 344,-234 		"/>
		<polygon class="st1" points="298,-234 298,-252 344,-252 344,-234 		"/>
		<text transform="matrix(1 0 0 1 301 -240.2)" class="st5 st3">varchar</text>
		<polygon class="st4" points="208,-216 208,-234 298,-234 298,-216 		"/>
		<polygon class="st1" points="208,-216 208,-234 298,-234 298,-216 		"/>
		<text transform="matrix(1 0 0 1 211 -222.2)" class="st5 st3">Country</text>
		<polygon class="st4" points="298,-216 298,-234 344,-234 344,-216 		"/>
		<polygon class="st1" points="298,-216 298,-234 344,-234 344,-216 		"/>
		<text transform="matrix(1 0 0 1 301 -222.2)" class="st5 st3">varchar</text>
		<polygon class="st4" points="208,-198 208,-216 298,-216 298,-198 		"/>
		<polygon class="st1" points="208,-198 208,-216 298,-216 298,-198 		"/>
		<text transform="matrix(1 0 0 1 211 -204.2)" class="st5 st3">Phone</text>
		<polygon class="st4" points="298,-198 298,-216 344,-216 344,-198 		"/>
		<polygon class="st1" points="298,-198 298,-216 344,-216 344,-198 		"/>
		<text transform="matrix(1 0 0 1 301 -204.2)" class="st5 st3">varchar</text>
		<polygon class="st4" points="208,-180 208,-198 298,-198 298,-180 		"/>
		<polygon class="st1" points="208,-180 208,-198 298,-198 298,-180 		"/>
		<text transform="matrix(1 0 0 1 211 -186.2)" class="st5 st3">Fax</text>
		<polygon class="st4" points="298,-180 298,-198 344,-198 344,-180 		"/>
		<polygon class="st1" points="298,-180 298,-198 344,-198 344,-180 		"/>
		<text transform="matrix(1 0 0 1 301 -186.2)" class="st5 st3">varchar</text>
	</g>
	<g id="node2">
		<polygon class="st0" points="88,-662 88,-685 258,-685 258,-662 		"/>
		<polygon class="st1" points="88,-662 88,-685 258,-685 258,-662 		"/>
		<text transform="matrix(1 0 0 1 105 -670.7)" class="st2 st3">CustomerCustomerDemo</text>
		<polygon class="st4" points="88,-644 88,-662 185,-662 185,-644 		"/>
		<polygon class="st1" points="88,-644 88,-662 185,-662 185,-644 		"/>
		<text transform="matrix(1 0 0 1 91 -650.2)" class="st5 st3">CustomerID</text>
		<polygon class="st4" points="185,-644 185,-662 258,-662 258,-644 		"/>
		<polygon class="st1" points="185,-644 185,-662 258,-662 258,-644 		"/>
		<text transform="matrix(1 0 0 1 188 -650.2)" class="st5 st3">varchar</text>
		<polygon class="st4" points="88,-626 88,-644 185,-644 185,-626 		"/>
		<polygon class="st1" points="88,-626 88,-644 185,-644 185,-626 		"/>
		<text transform="matrix(1 0 0 1 91 -632.2)" class="st5 st3">CustomerTypeID</text>
		<polygon class="st4" points="185,-626 185,-644 258,-644 258,-626 		"/>
		<polygon class="st1" points="185,-626 185,-644 258,-644 258,-626 		"/>
		<text transform="matrix(1 0 0 1 188 -632.2)" class="st5 st3">varchar</text>
	</g>
	<g id="edge2">
		<path class="st1" d="M182.5-622.3c13.2,46.7,37.7,133.6,58.3,206.7"/>
		<polygon class="st6" points="244.2,-416.4 243.6,-405.8 237.5,-414.5 		"/>
	</g>
	<g id="node4">
		<polygon class="st0" points="8,-297 8,-320 175,-320 175,-297 		"/>
		<polygon class="st1" points="8,-297 8,-320 175,-320 175,-297 		"/>
		<text transform="matrix(1 0 0 1 26.5 -305.7)" class="st2 st3">CustomerDemographics</text>
		<polygon class="st4" points="8,-279 8,-297 105,-297 105,-279 		"/>
		<polygon class="st1" points="8,-279 8,-297 105,-297 105,-279 		"/>
		<text transform="matrix(1 0 0 1 11 -285.2)" class="st5 st3">CustomerTypeID</text>
		<polygon class="st4" points="105,-279 105,-297 175,-297 175,-279 		"/>
		<polygon class="st1" points="105,-279 105,-297 175,-297 175,-279 		"/>
		<text transform="matrix(1 0 0 1 108 -285.2)" class="st5 st3">varchar</text>
		<polygon class="st4" points="8,-261 8,-279 105,-279 105,-261 		"/>
		<polygon class="st1" points="8,-261 8,-279 105,-279 105,-261 		"/>
		<text transform="matrix(1 0 0 1 11 -267.2)" class="st5 st3">CustomerDesc</text>
		<polygon class="st4" points="105,-261 105,-279 175,-279 175,-261 		"/>
		<polygon class="st1" points="105,-261 105,-279 175,-279 175,-261 		"/>
		<text transform="matrix(1 0 0 1 108 -267.2)" class="st5 st3">mediumtext</text>
	</g>
	<g id="edge4">
		<path class="st1" d="M165.4-622.3c-14.9,66.4-48.1,214.2-64.7,287.8"/>
		<polygon class="st6" points="104.2,-333.6 98.5,-324.6 97.3,-335.1 		"/>
	</g>
	<g id="node6">
		<polygon class="st0" points="548,-450 548,-473 706,-473 706,-450 		"/>
		<polygon class="st1" points="548,-450 548,-473 706,-473 706,-450 		"/>
		<text transform="matrix(1 0 0 1 597 -458.7)" class="st2 st3">Employees</text>
		<polygon class="st4" points="548,-432 548,-450 638,-450 638,-432 		"/>
		<polygon class="st1" points="548,-432 548,-450 638,-450 638,-432 		"/>
		<text transform="matrix(1 0 0 1 551 -438.2)" class="st5 st3">EmployeeID</text>
		<polygon class="st4" points="638,-432 638,-450 706,-450 706,-432 		"/>
		<polygon class="st1" points="638,-432 638,-450 706,-450 706,-432 		"/>
		<text transform="matrix(1 0 0 1 641 -438.2)" class="st5 st3">int</text>
		<polygon class="st4" points="548,-414 548,-432 638,-432 638,-414 		"/>
		<polygon class="st1" points="548,-414 548,-432 638,-432 638,-414 		"/>
		<text transform="matrix(1 0 0 1 551 -420.2)" class="st5 st3">LastName</text>
		<polygon class="st4" points="638,-414 638,-432 706,-432 706,-414 		"/>
		<polygon class="st1" points="638,-414 638,-432 706,-432 706,-414 		"/>
		<text transform="matrix(1 0 0 1 641 -420.2)" class="st5 st3">varchar</text>
		<polygon class="st4" points="548,-396 548,-414 638,-414 638,-396 		"/>
		<polygon class="st1" points="548,-396 548,-414 638,-414 638,-396 		"/>
		<text transform="matrix(1 0 0 1 551 -402.2)" class="st5 st3">FirstName</text>
		<polygon class="st4" points="638,-396 638,-414 706,-414 706,-396 		"/>
		<polygon class="st1" points="638,-396 638,-414 706,-414 706,-396 		"/>
		<text transform="matrix(1 0 0 1 641 -402.2)" class="st5 st3">varchar</text>
		<polygon class="st4" points="548,-378 548,-396 638,-396 638,-378 		"/>
		<polygon class="st1" points="548,-378 548,-396 638,-396 638,-378 		"/>
		<text transform="matrix(1 0 0 1 551 -384.2)" class="st5 st3">Title</text>
		<polygon class="st4" points="638,-378 638,-396 706,-396 706,-378 		"/>
		<polygon class="st1" points="638,-378 638,-396 706,-396 706,-378 		"/>
		<text transform="matrix(1 0 0 1 641 -384.2)" class="st5 st3">varchar</text>
		<polygon class="st4" points="548,-360 548,-378 638,-378 638,-360 		"/>
		<polygon class="st1" points="548,-360 548,-378 638,-378 638,-360 		"/>
		<text transform="matrix(1 0 0 1 551 -366.2)" class="st5 st3">TitleOfCourtesy</text>
		<polygon class="st4" points="638,-360 638,-378 706,-378 706,-360 		"/>
		<polygon class="st1" points="638,-360 638,-378 706,-378 706,-360 		"/>
		<text transform="matrix(1 0 0 1 641 -366.2)" class="st5 st3">varchar</text>
		<polygon class="st4" points="548,-342 548,-360 638,-360 638,-342 		"/>
		<polygon class="st1" points="548,-342 548,-360 638,-360 638,-342 		"/>
		<text transform="matrix(1 0 0 1 551 -348.2)" class="st5 st3">BirthDate</text>
		<polygon class="st4" points="638,-342 638,-360 706,-360 706,-342 		"/>
		<polygon class="st1" points="638,-342 638,-360 706,-360 706,-342 		"/>
		<text transform="matrix(1 0 0 1 641 -348.2)" class="st5 st3">datetime</text>
		<polygon class="st4" points="548,-324 548,-342 638,-342 638,-324 		"/>
		<polygon class="st1" points="548,-324 548,-342 638,-342 638,-324 		"/>
		<text transform="matrix(1 0 0 1 551 -330.2)" class="st5 st3">HireDate</text>
		<polygon class="st4" points="638,-324 638,-342 706,-342 706,-324 		"/>
		<polygon class="st1" points="638,-324 638,-342 706,-342 706,-324 		"/>
		<text transform="matrix(1 0 0 1 641 -330.2)" class="st5 st3">datetime</text>
		<polygon class="st4" points="548,-306 548,-324 638,-324 638,-306 		"/>
		<polygon class="st1" points="548,-306 548,-324 638,-324 638,-306 		"/>
		<text transform="matrix(1 0 0 1 551 -312.2)" class="st5 st3">Address</text>
		<polygon class="st4" points="638,-306 638,-324 706,-324 706,-306 		"/>
		<polygon class="st1" points="638,-306 638,-324 706,-324 706,-306 		"/>
		<text transform="matrix(1 0 0 1 641 -312.2)" class="st5 st3">varchar</text>
		<polygon class="st4" points="548,-288 548,-306 638,-306 638,-288 		"/>
		<polygon class="st1" points="548,-288 548,-306 638,-306 638,-288 		"/>
		<text transform="matrix(1 0 0 1 551 -294.2)" class="st5 st3">City</text>
		<polygon class="st4" points="638,-288 638,-306 706,-306 706,-288 		"/>
		<polygon class="st1" points="638,-288 638,-306 706,-306 706,-288 		"/>
		<text transform="matrix(1 0 0 1 641 -294.2)" class="st5 st3">varchar</text>
		<polygon class="st4" points="548,-270 548,-288 638,-288 638,-270 		"/>
		<polygon class="st1" points="548,-270 548,-288 638,-288 638,-270 		"/>
		<text transform="matrix(1 0 0 1 551 -276.2)" class="st5 st3">Region</text>
		<polygon class="st4" points="638,-270 638,-288 706,-288 706,-270 		"/>
		<polygon class="st1" points="638,-270 638,-288 706,-288 706,-270 		"/>
		<text transform="matrix(1 0 0 1 641 -276.2)" class="st5 st3">varchar</text>
		<polygon class="st4" points="548,-252 548,-270 638,-270 638,-252 		"/>
		<polygon class="st1" points="548,-252 548,-270 638,-270 638,-252 		"/>
		<text transform="matrix(1 0 0 1 551 -258.2)" class="st5 st3">PostalCode</text>
		<polygon class="st4" points="638,-252 638,-270 706,-270 706,-252 		"/>
		<polygon class="st1" points="638,-252 638,-270 706,-270 706,-252 		"/>
		<text transform="matrix(1 0 0 1 641 -258.2)" class="st5 st3">varchar</text>
		<polygon class="st4" points="548,-234 548,-252 638,-252 638,-234 		"/>
		<polygon class="st1" points="548,-234 548,-252 638,-252 638,-234 		"/>
		<text transform="matrix(1 0 0 1 551 -240.2)" class="st5 st3">Country</text>
		<polygon class="st4" points="638,-234 638,-252 706,-252 706,-234 		"/>
		<polygon class="st1" points="638,-234 638,-252 706,-252 706,-234 		"/>
		<text transform="matrix(1 0 0 1 641 -240.2)" class="st5 st3">varchar</text>
		<polygon class="st4" points="548,-216 548,-234 638,-234 638,-216 		"/>
		<polygon class="st1" points="548,-216 548,-234 638,-234 638,-216 		"/>
		<text transform="matrix(1 0 0 1 551 -222.2)" class="st5 st3">HomePhone</text>
		<polygon class="st4" points="638,-216 638,-234 706,-234 706,-216 		"/>
		<polygon class="st1" points="638,-216 638,-234 706,-234 706,-216 		"/>
		<text transform="matrix(1 0 0 1 641 -222.2)" class="st5 st3">varchar</text>
		<polygon class="st4" points="548,-198 548,-216 638,-216 638,-198 		"/>
		<polygon class="st1" points="548,-198 548,-216 638,-216 638,-198 		"/>
		<text transform="matrix(1 0 0 1 551 -204.2)" class="st5 st3">Extension</text>
		<polygon class="st4" points="638,-198 638,-216 706,-216 706,-198 		"/>
		<polygon class="st1" points="638,-198 638,-216 706,-216 706,-198 		"/>
		<text transform="matrix(1 0 0 1 641 -204.2)" class="st5 st3">varchar</text>
		<polygon class="st4" points="548,-180 548,-198 638,-198 638,-180 		"/>
		<polygon class="st1" points="548,-180 548,-198 638,-198 638,-180 		"/>
		<text transform="matrix(1 0 0 1 551 -186.2)" class="st5 st3">Photo</text>
		<polygon class="st4" points="638,-180 638,-198 706,-198 706,-180 		"/>
		<polygon class="st1" points="638,-180 638,-198 706,-198 706,-180 		"/>
		<text transform="matrix(1 0 0 1 641 -186.2)" class="st5 st3">longblob</text>
		<polygon class="st4" points="548,-162 548,-180 638,-180 638,-162 		"/>
		<polygon class="st1" points="548,-162 548,-180 638,-180 638,-162 		"/>
		<text transform="matrix(1 0 0 1 551 -168.2)" class="st5 st3">Notes</text>
		<polygon class="st4" points="638,-162 638,-180 706,-180 706,-162 		"/>
		<polygon class="st1" points="638,-162 638,-180 706,-180 706,-162 		"/>
		<text transform="matrix(1 0 0 1 641 -168.2)" class="st5 st3">mediumtext</text>
		<polygon class="st4" points="548,-144 548,-162 638,-162 638,-144 		"/>
		<polygon class="st1" points="548,-144 548,-162 638,-162 638,-144 		"/>
		<text transform="matrix(1 0 0 1 551 -150.2)" class="st5 st3">ReportsTo</text>
		<polygon class="st4" points="638,-144 638,-162 706,-162 706,-144 		"/>
		<polygon class="st1" points="638,-144 638,-162 706,-162 706,-144 		"/>
		<text transform="matrix(1 0 0 1 641 -150.2)" class="st5 st3">int</text>
		<polygon class="st4" points="548,-126 548,-144 638,-144 638,-126 		"/>
		<polygon class="st1" points="548,-126 548,-144 638,-144 638,-126 		"/>
		<text transform="matrix(1 0 0 1 551 -132.2)" class="st5 st3">PhotoPath</text>
		<polygon class="st4" points="638,-126 638,-144 706,-144 706,-126 		"/>
		<polygon class="st1" points="638,-126 638,-144 706,-144 706,-126 		"/>
		<text transform="matrix(1 0 0 1 641 -132.2)" class="st5 st3">varchar</text>
		<polygon class="st4" points="548,-108 548,-126 638,-126 638,-108 		"/>
		<polygon class="st1" points="548,-108 548,-126 638,-126 638,-108 		"/>
		<text transform="matrix(1 0 0 1 551 -114.2)" class="st5 st3">Salary</text>
		<polygon class="st4" points="638,-108 638,-126 706,-126 706,-108 		"/>
		<polygon class="st1" points="638,-108 638,-126 706,-126 706,-108 		"/>
		<text transform="matrix(1 0 0 1 641 -114.2)" class="st5 st3">float</text>
	</g>
	<g id="edge6">
		<path class="st1" d="M714.3-332.5C725-325.1,732-311.2,732-291c0,15-3.9,26.5-10.2,34.5"/>
		<polygon class="st6" points="724,-253.8 714.3,-249.5 719.2,-258.9 		"/>
	</g>
	<g id="node8">
		<polygon class="st0" points="666,-662 666,-685 797,-685 797,-662 		"/>
		<polygon class="st1" points="666,-662 666,-685 797,-685 797,-662 		"/>
		<text transform="matrix(1 0 0 1 678 -670.7)" class="st2 st3">EmployeeTerritories</text>
		<polygon class="st4" points="666,-644 666,-662 738,-662 738,-644 		"/>
		<polygon class="st1" points="666,-644 666,-662 738,-662 738,-644 		"/>
		<text transform="matrix(1 0 0 1 669 -650.2)" class="st5 st3">EmployeeID</text>
		<polygon class="st4" points="738,-644 738,-662 797,-662 797,-644 		"/>
		<polygon class="st1" points="738,-644 738,-662 797,-662 797,-644 		"/>
		<text transform="matrix(1 0 0 1 741 -650.2)" class="st5 st3">int</text>
		<polygon class="st4" points="666,-626 666,-644 738,-644 738,-626 		"/>
		<polygon class="st1" points="666,-626 666,-644 738,-644 738,-626 		"/>
		<text transform="matrix(1 0 0 1 669 -632.2)" class="st5 st3">TerritoryID</text>
		<polygon class="st4" points="738,-626 738,-644 797,-644 797,-626 		"/>
		<polygon class="st1" points="738,-626 738,-644 797,-644 797,-626 		"/>
		<text transform="matrix(1 0 0 1 741 -632.2)" class="st5 st3">varchar</text>
	</g>
	<g id="edge8">
		<path class="st1" d="M721.4-622.3c-9.1,31.9-23.5,82.6-38.4,134.8"/>
		<polygon class="st6" points="686.3,-486.4 680.2,-477.8 679.6,-488.4 		"/>
	</g>
	<g id="node10">
		<polygon class="st0" points="758,-306 758,-329 915,-329 915,-306 		"/>
		<polygon class="st1" points="758,-306 758,-329 915,-329 915,-306 		"/>
		<text transform="matrix(1 0 0 1 809.5 -314.7)" class="st2 st3">Territories</text>
		<polygon class="st4" points="758,-288 758,-306 869,-306 869,-288 		"/>
		<polygon class="st1" points="758,-288 758,-306 869,-306 869,-288 		"/>
		<text transform="matrix(1 0 0 1 761 -294.2)" class="st5 st3">TerritoryID</text>
		<polygon class="st4" points="869,-288 869,-306 915,-306 915,-288 		"/>
		<polygon class="st1" points="869,-288 869,-306 915,-306 915,-288 		"/>
		<text transform="matrix(1 0 0 1 872 -294.2)" class="st5 st3">varchar</text>
		<polygon class="st4" points="758,-270 758,-288 869,-288 869,-270 		"/>
		<polygon class="st1" points="758,-270 758,-288 869,-288 869,-270 		"/>
		<text transform="matrix(1 0 0 1 761 -276.2)" class="st5 st3">TerritoryDescription</text>
		<polygon class="st4" points="869,-270 869,-288 915,-288 915,-270 		"/>
		<polygon class="st1" points="869,-270 869,-288 915,-288 915,-270 		"/>
		<text transform="matrix(1 0 0 1 872 -276.2)" class="st5 st3">varchar</text>
		<polygon class="st4" points="758,-252 758,-270 869,-270 869,-252 		"/>
		<polygon class="st1" points="758,-252 758,-270 869,-270 869,-252 		"/>
		<text transform="matrix(1 0 0 1 761 -258.2)" class="st5 st3">RegionID</text>
		<polygon class="st4" points="869,-252 869,-270 915,-270 915,-252 		"/>
		<polygon class="st1" points="869,-252 869,-270 915,-270 915,-252 		"/>
		<text transform="matrix(1 0 0 1 872 -258.2)" class="st5 st3">int</text>
	</g>
	<g id="edge10">
		<path class="st1" d="M740.7-622.3c18.3,63.8,58.3,202.5,80.2,278.7"/>
		<polygon class="st6" points="824.3,-344.4 823.7,-333.8 817.6,-342.4 		"/>
	</g>
	<g id="node25">
		<polygon class="st0" points="761,-40 761,-63 912,-63 912,-40 		"/>
		<polygon class="st1" points="761,-40 761,-63 912,-63 912,-40 		"/>
		<text transform="matrix(1 0 0 1 817 -48.7)" class="st2 st3">Region</text>
		<polygon class="st4" points="761,-22 761,-40 866,-40 866,-22 		"/>
		<polygon class="st1" points="761,-22 761,-40 866,-40 866,-22 		"/>
		<text transform="matrix(1 0 0 1 764 -28.2)" class="st5 st3">RegionID</text>
		<polygon class="st4" points="866,-22 866,-40 912,-40 912,-22 		"/>
		<polygon class="st1" points="866,-22 866,-40 912,-40 912,-22 		"/>
		<text transform="matrix(1 0 0 1 869 -28.2)" class="st5 st3">int</text>
		<polygon class="st4" points="761,-4 761,-22 866,-22 866,-4 		"/>
		<polygon class="st1" points="761,-4 761,-22 866,-22 866,-4 		"/>
		<text transform="matrix(1 0 0 1 764 -10.2)" class="st5 st3">RegionDescription</text>
		<polygon class="st4" points="866,-4 866,-22 912,-22 912,-4 		"/>
		<polygon class="st1" points="866,-4 866,-22 912,-22 912,-4 		"/>
		<text transform="matrix(1 0 0 1 869 -10.2)" class="st5 st3">varchar</text>
	</g>
	<g id="edge26">
		<path class="st1" d="M836-248.3c0,47.2,0,122.8,0,170.5"/>
		<polygon class="st6" points="839.5,-77.8 836,-67.8 832.5,-77.8 		"/>
	</g>
	<g id="node12">
		<polygon class="st0" points="379,-770 379,-793 524,-793 524,-770 		"/>
		<polygon class="st1" points="379,-770 379,-793 524,-793 524,-770 		"/>
		<text transform="matrix(1 0 0 1 432.5 -778.7)" class="st2 st3">Orders</text>
		<polygon class="st4" points="379,-752 379,-770 472,-770 472,-752 		"/>
		<polygon class="st1" points="379,-752 379,-770 472,-770 472,-752 		"/>
		<text transform="matrix(1 0 0 1 382 -758.2)" class="st5 st3">OrderID</text>
		<polygon class="st4" points="472,-752 472,-770 524,-770 524,-752 		"/>
		<polygon class="st1" points="472,-752 472,-770 524,-770 524,-752 		"/>
		<text transform="matrix(1 0 0 1 475 -758.2)" class="st5 st3">int</text>
		<polygon class="st4" points="379,-734 379,-752 472,-752 472,-734 		"/>
		<polygon class="st1" points="379,-734 379,-752 472,-752 472,-734 		"/>
		<text transform="matrix(1 0 0 1 382 -740.2)" class="st5 st3">CustomerID</text>
		<polygon class="st4" points="472,-734 472,-752 524,-752 524,-734 		"/>
		<polygon class="st1" points="472,-734 472,-752 524,-752 524,-734 		"/>
		<text transform="matrix(1 0 0 1 475 -740.2)" class="st5 st3">varchar</text>
		<polygon class="st4" points="379,-716 379,-734 472,-734 472,-716 		"/>
		<polygon class="st1" points="379,-716 379,-734 472,-734 472,-716 		"/>
		<text transform="matrix(1 0 0 1 382 -722.2)" class="st5 st3">EmployeeID</text>
		<polygon class="st4" points="472,-716 472,-734 524,-734 524,-716 		"/>
		<polygon class="st1" points="472,-716 472,-734 524,-734 524,-716 		"/>
		<text transform="matrix(1 0 0 1 475 -722.2)" class="st5 st3">int</text>
		<polygon class="st4" points="379,-698 379,-716 472,-716 472,-698 		"/>
		<polygon class="st1" points="379,-698 379,-716 472,-716 472,-698 		"/>
		<text transform="matrix(1 0 0 1 382 -704.2)" class="st5 st3">OrderDate</text>
		<polygon class="st4" points="472,-698 472,-716 524,-716 524,-698 		"/>
		<polygon class="st1" points="472,-698 472,-716 524,-716 524,-698 		"/>
		<text transform="matrix(1 0 0 1 475 -704.2)" class="st5 st3">datetime</text>
		<polygon class="st4" points="379,-680 379,-698 472,-698 472,-680 		"/>
		<polygon class="st1" points="379,-680 379,-698 472,-698 472,-680 		"/>
		<text transform="matrix(1 0 0 1 382 -686.2)" class="st5 st3">RequiredDate</text>
		<polygon class="st4" points="472,-680 472,-698 524,-698 524,-680 		"/>
		<polygon class="st1" points="472,-680 472,-698 524,-698 524,-680 		"/>
		<text transform="matrix(1 0 0 1 475 -686.2)" class="st5 st3">datetime</text>
		<polygon class="st4" points="379,-662 379,-680 472,-680 472,-662 		"/>
		<polygon class="st1" points="379,-662 379,-680 472,-680 472,-662 		"/>
		<text transform="matrix(1 0 0 1 382 -668.2)" class="st5 st3">ShippedDate</text>
		<polygon class="st4" points="472,-662 472,-680 524,-680 524,-662 		"/>
		<polygon class="st1" points="472,-662 472,-680 524,-680 524,-662 		"/>
		<text transform="matrix(1 0 0 1 475 -668.2)" class="st5 st3">datetime</text>
		<polygon class="st4" points="379,-644 379,-662 472,-662 472,-644 		"/>
		<polygon class="st1" points="379,-644 379,-662 472,-662 472,-644 		"/>
		<text transform="matrix(1 0 0 1 382 -650.2)" class="st5 st3">ShipVia</text>
		<polygon class="st4" points="472,-644 472,-662 524,-662 524,-644 		"/>
		<polygon class="st1" points="472,-644 472,-662 524,-662 524,-644 		"/>
		<text transform="matrix(1 0 0 1 475 -650.2)" class="st5 st3">int</text>
		<polygon class="st4" points="379,-626 379,-644 472,-644 472,-626 		"/>
		<polygon class="st1" points="379,-626 379,-644 472,-644 472,-626 		"/>
		<text transform="matrix(1 0 0 1 382 -632.2)" class="st5 st3">Freight</text>
		<polygon class="st4" points="472,-626 472,-644 524,-644 524,-626 		"/>
		<polygon class="st1" points="472,-626 472,-644 524,-644 524,-626 		"/>
		<text transform="matrix(1 0 0 1 475 -632.2)" class="st5 st3">decimal</text>
		<polygon class="st4" points="379,-608 379,-626 472,-626 472,-608 		"/>
		<polygon class="st1" points="379,-608 379,-626 472,-626 472,-608 		"/>
		<text transform="matrix(1 0 0 1 382 -614.2)" class="st5 st3">ShipName</text>
		<polygon class="st4" points="472,-608 472,-626 524,-626 524,-608 		"/>
		<polygon class="st1" points="472,-608 472,-626 524,-626 524,-608 		"/>
		<text transform="matrix(1 0 0 1 475 -614.2)" class="st5 st3">varchar</text>
		<polygon class="st4" points="379,-590 379,-608 472,-608 472,-590 		"/>
		<polygon class="st1" points="379,-590 379,-608 472,-608 472,-590 		"/>
		<text transform="matrix(1 0 0 1 382 -596.2)" class="st5 st3">ShipAddress</text>
		<polygon class="st4" points="472,-590 472,-608 524,-608 524,-590 		"/>
		<polygon class="st1" points="472,-590 472,-608 524,-608 524,-590 		"/>
		<text transform="matrix(1 0 0 1 475 -596.2)" class="st5 st3">varchar</text>
		<polygon class="st4" points="379,-572 379,-590 472,-590 472,-572 		"/>
		<polygon class="st1" points="379,-572 379,-590 472,-590 472,-572 		"/>
		<text transform="matrix(1 0 0 1 382 -578.2)" class="st5 st3">ShipCity</text>
		<polygon class="st4" points="472,-572 472,-590 524,-590 524,-572 		"/>
		<polygon class="st1" points="472,-572 472,-590 524,-590 524,-572 		"/>
		<text transform="matrix(1 0 0 1 475 -578.2)" class="st5 st3">varchar</text>
		<polygon class="st4" points="379,-554 379,-572 472,-572 472,-554 		"/>
		<polygon class="st1" points="379,-554 379,-572 472,-572 472,-554 		"/>
		<text transform="matrix(1 0 0 1 382 -560.2)" class="st5 st3">ShipRegion</text>
		<polygon class="st4" points="472,-554 472,-572 524,-572 524,-554 		"/>
		<polygon class="st1" points="472,-554 472,-572 524,-572 524,-554 		"/>
		<text transform="matrix(1 0 0 1 475 -560.2)" class="st5 st3">varchar</text>
		<polygon class="st4" points="379,-536 379,-554 472,-554 472,-536 		"/>
		<polygon class="st1" points="379,-536 379,-554 472,-554 472,-536 		"/>
		<text transform="matrix(1 0 0 1 382 -542.2)" class="st5 st3">ShipPostalCode</text>
		<polygon class="st4" points="472,-536 472,-554 524,-554 524,-536 		"/>
		<polygon class="st1" points="472,-536 472,-554 524,-554 524,-536 		"/>
		<text transform="matrix(1 0 0 1 475 -542.2)" class="st5 st3">varchar</text>
		<polygon class="st4" points="379,-518 379,-536 472,-536 472,-518 		"/>
		<polygon class="st1" points="379,-518 379,-536 472,-536 472,-518 		"/>
		<text transform="matrix(1 0 0 1 382 -524.2)" class="st5 st3">ShipCountry</text>
		<polygon class="st4" points="472,-518 472,-536 524,-536 524,-518 		"/>
		<polygon class="st1" points="472,-518 472,-536 524,-536 524,-518 		"/>
		<text transform="matrix(1 0 0 1 475 -524.2)" class="st5 st3">varchar</text>
	</g>
	<g id="edge16">
		<path class="st1" d="M379.4-514.5C368.6-493.1,361-478,361-478s-12.9,28.3-28.6,62.9"/>
		<polygon class="st6" points="335.5,-413.4 328.1,-405.7 329.1,-416.3 		"/>
	</g>
	<g id="edge18">
		<path class="st1" d="M519.3-514.4c5.3,11.1,10.8,22.3,16.2,33.7"/>
		<polygon class="st6" points="538.7,-482.1 539.9,-471.6 532.4,-479.1 		"/>
	</g>
	<g id="node19">
		<polygon class="st0" points="378,-306 378,-329 514,-329 514,-306 		"/>
		<polygon class="st1" points="378,-306 378,-329 514,-329 514,-306 		"/>
		<text transform="matrix(1 0 0 1 422 -314.7)" class="st2 st3">Shippers</text>
		<polygon class="st4" points="378,-288 378,-306 468,-306 468,-288 		"/>
		<polygon class="st1" points="378,-288 378,-306 468,-306 468,-288 		"/>
		<text transform="matrix(1 0 0 1 381 -294.2)" class="st5 st3">ShipperID</text>
		<polygon class="st4" points="468,-288 468,-306 514,-306 514,-288 		"/>
		<polygon class="st1" points="468,-288 468,-306 514,-306 514,-288 		"/>
		<text transform="matrix(1 0 0 1 471 -294.2)" class="st5 st3">int</text>
		<polygon class="st4" points="378,-270 378,-288 468,-288 468,-270 		"/>
		<polygon class="st1" points="378,-270 378,-288 468,-288 468,-270 		"/>
		<text transform="matrix(1 0 0 1 381 -276.2)" class="st5 st3">CompanyName</text>
		<polygon class="st4" points="468,-270 468,-288 514,-288 514,-270 		"/>
		<polygon class="st1" points="468,-270 468,-288 514,-288 514,-270 		"/>
		<text transform="matrix(1 0 0 1 471 -276.2)" class="st5 st3">varchar</text>
		<polygon class="st4" points="378,-252 378,-270 468,-270 468,-252 		"/>
		<polygon class="st1" points="378,-252 378,-270 468,-270 468,-252 		"/>
		<text transform="matrix(1 0 0 1 381 -258.2)" class="st5 st3">Phone</text>
		<polygon class="st4" points="468,-252 468,-270 514,-270 514,-252 		"/>
		<polygon class="st1" points="468,-252 468,-270 514,-270 514,-252 		"/>
		<text transform="matrix(1 0 0 1 471 -258.2)" class="st5 st3">varchar</text>
	</g>
	<g id="edge20">
		<path class="st1" d="M449.1-514.4c-0.8,59.9-1.7,125.9-2.3,170.5"/>
		<polygon class="st6" points="450.2,-343.7 446.6,-333.8 443.2,-343.8 		"/>
	</g>
	<g id="node13">
		<polygon class="st0" points="686,-928 686,-951 793,-951 793,-928 		"/>
		<polygon class="st1" points="686,-928 686,-951 793,-951 793,-928 		"/>
		<text transform="matrix(1 0 0 1 705.3201 -936.7)" class="st2 st3">OrderDetails</text>
		<polygon class="st4" points="686,-910 686,-928 746,-928 746,-910 		"/>
		<polygon class="st1" points="686,-910 686,-928 746,-928 746,-910 		"/>
		<text transform="matrix(1 0 0 1 689 -916.2)" class="st5 st3">OrderID</text>
		<polygon class="st4" points="746,-910 746,-928 793,-928 793,-910 		"/>
		<polygon class="st1" points="746,-910 746,-928 793,-928 793,-910 		"/>
		<text transform="matrix(1 0 0 1 749 -916.2)" class="st5 st3">int</text>
		<polygon class="st4" points="686,-892 686,-910 746,-910 746,-892 		"/>
		<polygon class="st1" points="686,-892 686,-910 746,-910 746,-892 		"/>
		<text transform="matrix(1 0 0 1 689 -898.2)" class="st5 st3">ProductID</text>
		<polygon class="st4" points="746,-892 746,-910 793,-910 793,-892 		"/>
		<polygon class="st1" points="746,-892 746,-910 793,-910 793,-892 		"/>
		<text transform="matrix(1 0 0 1 749 -898.2)" class="st5 st3">int</text>
		<polygon class="st4" points="686,-874 686,-892 746,-892 746,-874 		"/>
		<polygon class="st1" points="686,-874 686,-892 746,-892 746,-874 		"/>
		<text transform="matrix(1 0 0 1 689 -880.2)" class="st5 st3">UnitPrice</text>
		<polygon class="st4" points="746,-874 746,-892 793,-892 793,-874 		"/>
		<polygon class="st1" points="746,-874 746,-892 793,-892 793,-874 		"/>
		<text transform="matrix(1 0 0 1 749 -880.2)" class="st5 st3">decimal</text>
		<polygon class="st4" points="686,-856 686,-874 746,-874 746,-856 		"/>
		<polygon class="st1" points="686,-856 686,-874 746,-874 746,-856 		"/>
		<text transform="matrix(1 0 0 1 689 -862.2)" class="st5 st3">Quantity</text>
		<polygon class="st4" points="746,-856 746,-874 793,-874 793,-856 		"/>
		<polygon class="st1" points="746,-856 746,-874 793,-874 793,-856 		"/>
		<text transform="matrix(1 0 0 1 749 -862.2)" class="st5 st3">smallint</text>
		<polygon class="st4" points="686,-838 686,-856 746,-856 746,-838 		"/>
		<polygon class="st1" points="686,-838 686,-856 746,-856 746,-838 		"/>
		<text transform="matrix(1 0 0 1 689 -844.2)" class="st5 st3">Discount</text>
		<polygon class="st4" points="746,-838 746,-856 793,-856 793,-838 		"/>
		<polygon class="st1" points="746,-838 746,-856 793,-856 793,-838 		"/>
		<text transform="matrix(1 0 0 1 749 -844.2)" class="st5 st3">double</text>
	</g>
	<g id="edge12">
		<path class="st1" d="M677.9-844.3c-40.4,33.5-94.1,78.1-139.1,115.4"/>
		<polygon class="st6" points="541.1,-726.2 531.1,-722.5 536.6,-731.6 		"/>
	</g>
	<g id="node15">
		<polygon class="st0" points="958,-734 958,-757 1096,-757 1096,-734 		"/>
		<polygon class="st1" points="958,-734 958,-757 1096,-757 1096,-734 		"/>
		<text transform="matrix(1 0 0 1 1003 -742.7)" class="st2 st3">Products</text>
		<polygon class="st4" points="958,-716 958,-734 1049,-734 1049,-716 		"/>
		<polygon class="st1" points="958,-716 958,-734 1049,-734 1049,-716 		"/>
		<text transform="matrix(1 0 0 1 961 -722.2)" class="st5 st3">ProductID</text>
		<polygon class="st4" points="1049,-716 1049,-734 1096,-734 1096,-716 		"/>
		<polygon class="st1" points="1049,-716 1049,-734 1096,-734 1096,-716 		"/>
		<text transform="matrix(1 0 0 1 1052 -722.2)" class="st5 st3">int</text>
		<polygon class="st4" points="958,-698 958,-716 1049,-716 1049,-698 		"/>
		<polygon class="st1" points="958,-698 958,-716 1049,-716 1049,-698 		"/>
		<text transform="matrix(1 0 0 1 961 -704.2)" class="st5 st3">ProductName</text>
		<polygon class="st4" points="1049,-698 1049,-716 1096,-716 1096,-698 		"/>
		<polygon class="st1" points="1049,-698 1049,-716 1096,-716 1096,-698 		"/>
		<text transform="matrix(1 0 0 1 1052 -704.2)" class="st5 st3">varchar</text>
		<polygon class="st4" points="958,-680 958,-698 1049,-698 1049,-680 		"/>
		<polygon class="st1" points="958,-680 958,-698 1049,-698 1049,-680 		"/>
		<text transform="matrix(1 0 0 1 961 -686.2)" class="st5 st3">SupplierID</text>
		<polygon class="st4" points="1049,-680 1049,-698 1096,-698 1096,-680 		"/>
		<polygon class="st1" points="1049,-680 1049,-698 1096,-698 1096,-680 		"/>
		<text transform="matrix(1 0 0 1 1052 -686.2)" class="st5 st3">int</text>
		<polygon class="st4" points="958,-662 958,-680 1049,-680 1049,-662 		"/>
		<polygon class="st1" points="958,-662 958,-680 1049,-680 1049,-662 		"/>
		<text transform="matrix(1 0 0 1 961 -668.2)" class="st5 st3">CategoryID</text>
		<polygon class="st4" points="1049,-662 1049,-680 1096,-680 1096,-662 		"/>
		<polygon class="st1" points="1049,-662 1049,-680 1096,-680 1096,-662 		"/>
		<text transform="matrix(1 0 0 1 1052 -668.2)" class="st5 st3">int</text>
		<polygon class="st4" points="958,-644 958,-662 1049,-662 1049,-644 		"/>
		<polygon class="st1" points="958,-644 958,-662 1049,-662 1049,-644 		"/>
		<text transform="matrix(1 0 0 1 961 -650.2)" class="st5 st3">QuantityPerUnit</text>
		<polygon class="st4" points="1049,-644 1049,-662 1096,-662 1096,-644 		"/>
		<polygon class="st1" points="1049,-644 1049,-662 1096,-662 1096,-644 		"/>
		<text transform="matrix(1 0 0 1 1052 -650.2)" class="st5 st3">varchar</text>
		<polygon class="st4" points="958,-626 958,-644 1049,-644 1049,-626 		"/>
		<polygon class="st1" points="958,-626 958,-644 1049,-644 1049,-626 		"/>
		<text transform="matrix(1 0 0 1 961 -632.2)" class="st5 st3">UnitPrice</text>
		<polygon class="st4" points="1049,-626 1049,-644 1096,-644 1096,-626 		"/>
		<polygon class="st1" points="1049,-626 1049,-644 1096,-644 1096,-626 		"/>
		<text transform="matrix(1 0 0 1 1052 -632.2)" class="st5 st3">decimal</text>
		<polygon class="st4" points="958,-608 958,-626 1049,-626 1049,-608 		"/>
		<polygon class="st1" points="958,-608 958,-626 1049,-626 1049,-608 		"/>
		<text transform="matrix(1 0 0 1 961 -614.2)" class="st5 st3">UnitsInStock</text>
		<polygon class="st4" points="1049,-608 1049,-626 1096,-626 1096,-608 		"/>
		<polygon class="st1" points="1049,-608 1049,-626 1096,-626 1096,-608 		"/>
		<text transform="matrix(1 0 0 1 1052 -614.2)" class="st5 st3">smallint</text>
		<polygon class="st4" points="958,-590 958,-608 1049,-608 1049,-590 		"/>
		<polygon class="st1" points="958,-590 958,-608 1049,-608 1049,-590 		"/>
		<text transform="matrix(1 0 0 1 961 -596.2)" class="st5 st3">UnitsOnOrder</text>
		<polygon class="st4" points="1049,-590 1049,-608 1096,-608 1096,-590 		"/>
		<polygon class="st1" points="1049,-590 1049,-608 1096,-608 1096,-590 		"/>
		<text transform="matrix(1 0 0 1 1052 -596.2)" class="st5 st3">smallint</text>
		<polygon class="st4" points="958,-572 958,-590 1049,-590 1049,-572 		"/>
		<polygon class="st1" points="958,-572 958,-590 1049,-590 1049,-572 		"/>
		<text transform="matrix(1 0 0 1 961 -578.2)" class="st5 st3">ReorderLevel</text>
		<polygon class="st4" points="1049,-572 1049,-590 1096,-590 1096,-572 		"/>
		<polygon class="st1" points="1049,-572 1049,-590 1096,-590 1096,-572 		"/>
		<text transform="matrix(1 0 0 1 1052 -578.2)" class="st5 st3">smallint</text>
		<polygon class="st4" points="958,-554 958,-572 1049,-572 1049,-554 		"/>
		<polygon class="st1" points="958,-554 958,-572 1049,-572 1049,-554 		"/>
		<text transform="matrix(1 0 0 1 961 -560.2)" class="st5 st3">Discontinued</text>
		<polygon class="st4" points="1049,-554 1049,-572 1096,-572 1096,-554 		"/>
		<polygon class="st1" points="1049,-554 1049,-572 1096,-572 1096,-554 		"/>
		<text transform="matrix(1 0 0 1 1052 -560.2)" class="st5 st3">tinyint</text>
	</g>
	<g id="edge14">
		<path class="st1" d="M800.1-844.3c41.3,34.3,96.4,80,141.9,117.8"/>
		<polygon class="st6" points="944.3,-729.1 949.8,-720.1 939.9,-723.8 		"/>
	</g>
	<g id="node21">
		<polygon class="st0" points="948,-387 948,-410 1106,-410 1106,-387 		"/>
		<polygon class="st1" points="948,-387 948,-410 1106,-410 1106,-387 		"/>
		<text transform="matrix(1 0 0 1 1001.5 -395.7)" class="st2 st3">Suppliers</text>
		<polygon class="st4" points="948,-369 948,-387 1038,-387 1038,-369 		"/>
		<polygon class="st1" points="948,-369 948,-387 1038,-387 1038,-369 		"/>
		<text transform="matrix(1 0 0 1 951 -375.2)" class="st5 st3">SupplierID</text>
		<polygon class="st4" points="1038,-369 1038,-387 1106,-387 1106,-369 		"/>
		<polygon class="st1" points="1038,-369 1038,-387 1106,-387 1106,-369 		"/>
		<text transform="matrix(1 0 0 1 1041 -375.2)" class="st5 st3">int</text>
		<polygon class="st4" points="948,-351 948,-369 1038,-369 1038,-351 		"/>
		<polygon class="st1" points="948,-351 948,-369 1038,-369 1038,-351 		"/>
		<text transform="matrix(1 0 0 1 951 -357.2)" class="st5 st3">CompanyName</text>
		<polygon class="st4" points="1038,-351 1038,-369 1106,-369 1106,-351 		"/>
		<polygon class="st1" points="1038,-351 1038,-369 1106,-369 1106,-351 		"/>
		<text transform="matrix(1 0 0 1 1041 -357.2)" class="st5 st3">varchar</text>
		<polygon class="st4" points="948,-333 948,-351 1038,-351 1038,-333 		"/>
		<polygon class="st1" points="948,-333 948,-351 1038,-351 1038,-333 		"/>
		<text transform="matrix(1 0 0 1 951 -339.2)" class="st5 st3">ContactName</text>
		<polygon class="st4" points="1038,-333 1038,-351 1106,-351 1106,-333 		"/>
		<polygon class="st1" points="1038,-333 1038,-351 1106,-351 1106,-333 		"/>
		<text transform="matrix(1 0 0 1 1041 -339.2)" class="st5 st3">varchar</text>
		<polygon class="st4" points="948,-315 948,-333 1038,-333 1038,-315 		"/>
		<polygon class="st1" points="948,-315 948,-333 1038,-333 1038,-315 		"/>
		<text transform="matrix(1 0 0 1 951 -321.2)" class="st5 st3">ContactTitle</text>
		<polygon class="st4" points="1038,-315 1038,-333 1106,-333 1106,-315 		"/>
		<polygon class="st1" points="1038,-315 1038,-333 1106,-333 1106,-315 		"/>
		<text transform="matrix(1 0 0 1 1041 -321.2)" class="st5 st3">varchar</text>
		<polygon class="st4" points="948,-297 948,-315 1038,-315 1038,-297 		"/>
		<polygon class="st1" points="948,-297 948,-315 1038,-315 1038,-297 		"/>
		<text transform="matrix(1 0 0 1 951 -303.2)" class="st5 st3">Address</text>
		<polygon class="st4" points="1038,-297 1038,-315 1106,-315 1106,-297 		"/>
		<polygon class="st1" points="1038,-297 1038,-315 1106,-315 1106,-297 		"/>
		<text transform="matrix(1 0 0 1 1041 -303.2)" class="st5 st3">varchar</text>
		<polygon class="st4" points="948,-279 948,-297 1038,-297 1038,-279 		"/>
		<polygon class="st1" points="948,-279 948,-297 1038,-297 1038,-279 		"/>
		<text transform="matrix(1 0 0 1 951 -285.2)" class="st5 st3">City</text>
		<polygon class="st4" points="1038,-279 1038,-297 1106,-297 1106,-279 		"/>
		<polygon class="st1" points="1038,-279 1038,-297 1106,-297 1106,-279 		"/>
		<text transform="matrix(1 0 0 1 1041 -285.2)" class="st5 st3">varchar</text>
		<polygon class="st4" points="948,-261 948,-279 1038,-279 1038,-261 		"/>
		<polygon class="st1" points="948,-261 948,-279 1038,-279 1038,-261 		"/>
		<text transform="matrix(1 0 0 1 951 -267.2)" class="st5 st3">Region</text>
		<polygon class="st4" points="1038,-261 1038,-279 1106,-279 1106,-261 		"/>
		<polygon class="st1" points="1038,-261 1038,-279 1106,-279 1106,-261 		"/>
		<text transform="matrix(1 0 0 1 1041 -267.2)" class="st5 st3">varchar</text>
		<polygon class="st4" points="948,-243 948,-261 1038,-261 1038,-243 		"/>
		<polygon class="st1" points="948,-243 948,-261 1038,-261 1038,-243 		"/>
		<text transform="matrix(1 0 0 1 951 -249.2)" class="st5 st3">PostalCode</text>
		<polygon class="st4" points="1038,-243 1038,-261 1106,-261 1106,-243 		"/>
		<polygon class="st1" points="1038,-243 1038,-261 1106,-261 1106,-243 		"/>
		<text transform="matrix(1 0 0 1 1041 -249.2)" class="st5 st3">varchar</text>
		<polygon class="st4" points="948,-225 948,-243 1038,-243 1038,-225 		"/>
		<polygon class="st1" points="948,-225 948,-243 1038,-243 1038,-225 		"/>
		<text transform="matrix(1 0 0 1 951 -231.2)" class="st5 st3">Country</text>
		<polygon class="st4" points="1038,-225 1038,-243 1106,-243 1106,-225 		"/>
		<polygon class="st1" points="1038,-225 1038,-243 1106,-243 1106,-225 		"/>
		<text transform="matrix(1 0 0 1 1041 -231.2)" class="st5 st3">varchar</text>
		<polygon class="st4" points="948,-207 948,-225 1038,-225 1038,-207 		"/>
		<polygon class="st1" points="948,-207 948,-225 1038,-225 1038,-207 		"/>
		<text transform="matrix(1 0 0 1 951 -213.2)" class="st5 st3">Phone</text>
		<polygon class="st4" points="1038,-207 1038,-225 1106,-225 1106,-207 		"/>
		<polygon class="st1" points="1038,-207 1038,-225 1106,-225 1106,-207 		"/>
		<text transform="matrix(1 0 0 1 1041 -213.2)" class="st5 st3">varchar</text>
		<polygon class="st4" points="948,-189 948,-207 1038,-207 1038,-189 		"/>
		<polygon class="st1" points="948,-189 948,-207 1038,-207 1038,-189 		"/>
		<text transform="matrix(1 0 0 1 951 -195.2)" class="st5 st3">Fax</text>
		<polygon class="st4" points="1038,-189 1038,-207 1106,-207 1106,-189 		"/>
		<polygon class="st1" points="1038,-189 1038,-207 1106,-207 1106,-189 		"/>
		<text transform="matrix(1 0 0 1 1041 -195.2)" class="st5 st3">varchar</text>
		<polygon class="st4" points="948,-171 948,-189 1038,-189 1038,-171 		"/>
		<polygon class="st1" points="948,-171 948,-189 1038,-189 1038,-171 		"/>
		<text transform="matrix(1 0 0 1 951 -177.2)" class="st5 st3">HomePage</text>
		<polygon class="st4" points="1038,-171 1038,-189 1106,-189 1106,-171 		"/>
		<polygon class="st1" points="1038,-171 1038,-189 1106,-189 1106,-171 		"/>
		<text transform="matrix(1 0 0 1 1041 -177.2)" class="st5 st3">mediumtext</text>
	</g>
	<g id="edge22">
		<path class="st1" d="M1027-550.4c0,39.2,0,84.2,0,125.6"/>
		<polygon class="st6" points="1030.5,-424.7 1027,-414.7 1023.5,-424.7 		"/>
	</g>
	<g id="node23">
		<polygon class="st0" points="1140,-315 1140,-338 1295,-338 1295,-315 		"/>
		<polygon class="st1" points="1140,-315 1140,-338 1295,-338 1295,-315 		"/>
		<text transform="matrix(1 0 0 1 1188 -323.7)" class="st2 st3">Categories</text>
		<polygon class="st4" points="1140,-297 1140,-315 1227,-315 1227,-297 		"/>
		<polygon class="st1" points="1140,-297 1140,-315 1227,-315 1227,-297 		"/>
		<text transform="matrix(1 0 0 1 1143 -303.2)" class="st5 st3">CategoryID</text>
		<polygon class="st4" points="1227,-297 1227,-315 1295,-315 1295,-297 		"/>
		<polygon class="st1" points="1227,-297 1227,-315 1295,-315 1295,-297 		"/>
		<text transform="matrix(1 0 0 1 1230 -303.2)" class="st5 st3">int</text>
		<polygon class="st4" points="1140,-279 1140,-297 1227,-297 1227,-279 		"/>
		<polygon class="st1" points="1140,-279 1140,-297 1227,-297 1227,-279 		"/>
		<text transform="matrix(1 0 0 1 1143 -285.2)" class="st5 st3">CategoryName</text>
		<polygon class="st4" points="1227,-279 1227,-297 1295,-297 1295,-279 		"/>
		<polygon class="st1" points="1227,-279 1227,-297 1295,-297 1295,-279 		"/>
		<text transform="matrix(1 0 0 1 1230 -285.2)" class="st5 st3">varchar</text>
		<polygon class="st4" points="1140,-261 1140,-279 1227,-279 1227,-261 		"/>
		<polygon class="st1" points="1140,-261 1140,-279 1227,-279 1227,-261 		"/>
		<text transform="matrix(1 0 0 1 1143 -267.2)" class="st5 st3">Description</text>
		<polygon class="st4" points="1227,-261 1227,-279 1295,-279 1295,-261 		"/>
		<polygon class="st1" points="1227,-261 1227,-279 1295,-279 1295,-261 		"/>
		<text transform="matrix(1 0 0 1 1230 -267.2)" class="st5 st3">mediumtext</text>
		<polygon class="st4" points="1140,-243 1140,-261 1227,-261 1227,-243 		"/>
		<polygon class="st1" points="1140,-243 1140,-261 1227,-261 1227,-243 		"/>
		<text transform="matrix(1 0 0 1 1143 -249.2)" class="st5 st3">Picture</text>
		<polygon class="st4" points="1227,-243 1227,-261 1295,-261 1295,-243 		"/>
		<polygon class="st1" points="1227,-243 1227,-261 1295,-261 1295,-243 		"/>
		<text transform="matrix(1 0 0 1 1230 -249.2)" class="st5 st3">longblob</text>
	</g>
	<g id="edge24">
		<path class="st1" d="M1083.9-550.4c20.7,38.3,39.1,72.4,39.1,72.4s36.1,71.8,63.6,126.5"/>
		<polygon class="st6" points="1189.7,-353.1 1191.1,-342.6 1183.4,-350 		"/>
	</g>
</g>
</svg>
